# xmcd
#
# Track frame offsets: 
#        150
#        14767
#        28908
#        44843
#        64399
#        83896
#        102531
#        113084
#        132336
#        148491
#
# Disc length: 2166 seconds
#
# Revision: 0
# Processed by: cddbd v1.5.2PL0 Copyright (c) Steve Scherf et al.
# Submitted via: ExactAudioCopy v0.95b4
#
DISCID=a108740a
DTITLE=Angela Harris - Roots
DYEAR=2005
DGENRE=Country
TTITLE0=Roots (Can Grow Anywhere
TTITLE1=Takes Me There
TTITLE2=Power In Opinion
TTITLE3=He Kissed Her
TTITLE4=Way Down Deep
TTITLE5=Her Wisdom
TTITLE6=Livin' Life
TTITLE7=I'm Scared
TTITLE8=Ego Can Kill The Pride
TTITLE9=I'll Be Your Friend
EXTD=
EXTT0=
EXTT1=
EXTT2=
EXTT3=
EXTT4=
EXTT5=
EXTT6=
EXTT7=
EXTT8=
EXTT9=
PLAYORDER=
